# xmcd
#
# Track frame offsets:
#	150
#	11707
#	23544
#	34021
#	51497
#	61049
#	74980
#	87922
#	101897
#	120158
#	152394
#	163274
#	173828
#	189078
#	217396
#	226646
#	238475
#	247618
#	259614
#	269331
#	282918
#	295024
#	307369
#	322222
#	335320
#
# Disc length: 4647 seconds
#
# Revision: 1
# Processed by: cddbd v1.5.2PL0 Copyright (c) Steve Scherf et al.
# Submitted via: audiograbber 1.83.01
#
DISCID=69122519
DTITLE=Guy,Buddy - First Time I Met The Blues 1958-1963 Recordings
DYEAR=2015
DGENRE=Blues
TTITLE0=Baby don't you wanna come home
TTITLE1=Try to quit you,baby
TTITLE2=First time I met the blues
TTITLE3=When my left eye jumps
TTITLE4=Slop around
TTITLE5=I got a strange feeling
TTITLE6=Let me love you baby
TTITLE7=Hully Gully
TTITLE8=Watch yourself
TTITLE9=Stone crazy
TTITLE10=Hard but it's fair
TTITLE11=I got my eyes on you
TTITLE12=Skippin'
TTITLE13=I found a true love
TTITLE14=The treasure untold
TTITLE15=Ten years ago
TTITLE16=American Bandstand
TTITLE17=You sure can't do
TTITLE18=Baby (baby,baby,baby)
TTITLE19=Sit and cry
TTITLE20=That's it
TTITLE21=Good things (voc:Jesse Fortune)
TTITLE22=Broken-hearted blues
TTITLE23=Too many cooks (voc:Jesse Fortune)
TTITLE24=This is the end
EXTD=
EXTT0=
EXTT1=
EXTT2=
EXTT3=
EXTT4=
EXTT5=
EXTT6=
EXTT7=
EXTT8=
EXTT9=
EXTT10=
EXTT11=
EXTT12=
EXTT13=
EXTT14=
EXTT15=
EXTT16=
EXTT17=
EXTT18=
EXTT19=
EXTT20=
EXTT21=
EXTT22=
EXTT23=
EXTT24=
PLAYORDER=
